# xmcd
#
# Track frame offsets: 
#        187
#        40947
#        84445
#        100122
#        114277
#        145732
#        180662
#
# Disc length: 2756 seconds
#
# Revision: 6
# Processed by: cddbd v1.5.2PL0 Copyright (c) Steve Scherf et al.
# Submitted via: ExactAudioCopy v0.99pb5
#
DISCID=4e0ac207
DTITLE=Gerry Mulligan and Paul Desmond Quartet - Blues In Time (MFSL UDC
DTITLE=D 648)
DYEAR=1957
DGENRE=Jazz
TTITLE0=Blues In Time
TTITLE1=Body And Soul
TTITLE2=Stand Still
TTITLE3=Line For Lyons
TTITLE4=Wintersong
TTITLE5=Battle Hymn Of The Republican
TTITLE6=Fall Out
EXTD=Original Master Recording
EXTT0=
EXTT1=
EXTT2=
EXTT3=
EXTT4=
EXTT5=
EXTT6=
PLAYORDER=
